<?xml version="1.0" encoding="utf-8"?>
<!-- Generator: Adobe Illustrator 16.0.0, SVG Export Plug-In . SVG Version: 6.00 Build 0)  -->
<!DOCTYPE svg PUBLIC "-//W3C//DTD SVG 1.1//EN" "http://www.w3.org/Graphics/SVG/1.1/DTD/svg11.dtd">
<svg version="1.1" id="Layer_1" xmlns="http://www.w3.org/2000/svg" xmlns:xlink="http://www.w3.org/1999/xlink" x="0px" y="0px"
	 width="120px" height="24px" viewBox="0 0 120 24" enable-background="new 0 0 120 24" xml:space="preserve">
<path fill="#FFFFFF" d="M12.509-6.732c0,0.357-0.125,0.661-0.375,0.911L10.313-4c-0.25,0.25-0.554,0.375-0.911,0.375
	C9.045-3.625,8.741-3.75,8.491-4L4.553-7.938L0.615-4c-0.25,0.25-0.554,0.375-0.911,0.375S-0.957-3.75-1.207-4l-1.821-1.821
	c-0.25-0.25-0.375-0.554-0.375-0.911s0.125-0.661,0.375-0.911l3.938-3.938l-3.938-3.938c-0.25-0.25-0.375-0.554-0.375-0.911
	s0.125-0.661,0.375-0.911l1.821-1.82c0.25-0.25,0.554-0.375,0.911-0.375s0.661,0.125,0.911,0.375l3.938,3.938l3.938-3.938
	c0.25-0.25,0.554-0.375,0.911-0.375c0.357,0,0.661,0.125,0.911,0.375l1.821,1.82c0.25,0.25,0.375,0.554,0.375,0.911
	s-0.125,0.661-0.375,0.911l-3.938,3.938l3.938,3.938C12.384-7.394,12.509-7.09,12.509-6.732z M53.062-3.371l-8.731-8.719
	c-0.331-0.33-0.496-0.734-0.496-1.212s0.165-0.881,0.496-1.212l8.731-8.719c0.331-0.33,0.735-0.496,1.213-0.496
	c0.477,0,0.881,0.166,1.211,0.496l1.005,1.004c0.331,0.33,0.495,0.734,0.495,1.212s-0.164,0.882-0.495,1.212l-6.509,6.51
	l6.509,6.496c0.331,0.339,0.495,0.745,0.495,1.219c0,0.473-0.164,0.875-0.495,1.205l-1.005,1.004
	c-0.33,0.33-0.734,0.496-1.211,0.496C53.798-2.875,53.394-3.041,53.062-3.371L53.062-3.371z M105.844-13.295
	c0,0.465-0.165,0.871-0.496,1.219l-8.731,8.72c-0.331,0.331-0.732,0.496-1.205,0.496s-0.874-0.165-1.205-0.496L93.188-4.36
	c-0.33-0.349-0.496-0.755-0.496-1.22c0-0.473,0.166-0.875,0.496-1.205l6.51-6.508l-6.51-6.496c-0.33-0.349-0.496-0.755-0.496-1.219
	c0-0.475,0.166-0.875,0.496-1.205l1.019-1.004c0.321-0.34,0.724-0.51,1.205-0.51s0.884,0.17,1.205,0.51l8.731,8.719
	c0.331,0.33,0.496,0.732,0.496,1.205V-13.295z"/>
<path fill="#FFFFFF" stroke="#FFFFFF" stroke-width="0.5" stroke-miterlimit="10" d="M20.142,21.999L4.961,3.072L20.142,21.999z"/>
<path fill="#FFFFFF" stroke="#FFFFFF" stroke-width="0.5" stroke-miterlimit="10" d="M5.357,22.604L20.518,3.661L5.357,22.604z"/>
<line fill="#FFFFFF" stroke="#FFFFFF" stroke-width="0.5" stroke-miterlimit="10" x1="60.996" y1="1.621" x2="50.973" y2="11.66"/>
<line fill="#FFFFFF" stroke="#FFFFFF" stroke-width="0.5" stroke-miterlimit="10" x1="61.379" y1="21.466" x2="51.216" y2="11.565"/>
<line fill="#FFFFFF" stroke="#FFFFFF" stroke-width="0.5" stroke-miterlimit="10" x1="105.98" y1="22.466" x2="116.004" y2="12.427"/>
<line fill="#FFFFFF" stroke="#FFFFFF" stroke-width="0.5" stroke-miterlimit="10" x1="105.598" y1="2.621" x2="115.76" y2="12.521"/>
</svg>
